<?xml version="1.0" encoding="UTF-8"?>
<svg version="1.1" xmlns="http://www.w3.org/2000/svg" width="189" height="192">
<path d="M0 0 C62.37 0 124.74 0 189 0 C189 63.36 189 126.72 189 192 C126.63 192 64.26 192 0 192 C0 128.64 0 65.28 0 0 Z " fill="#FEFEFE" transform="translate(0,0)"/>
<path d="M0 0 C7.17280486 4.9178026 12.92590804 10.97602026 17.73486328 18.18945312 C18.72927194 25.89033882 17.88843753 32.58458915 13.73486328 39.18945312 C9.62227093 44.21595488 4.1854938 47.5015821 -1.60498047 50.33398438 C-7.32259357 53.17852067 -11.01021738 56.05650826 -13.26513672 62.18945312 C-14.29639543 67.58603995 -13.18574761 72.76457078 -12.17944336 78.09594727 C-10.64736819 86.2998171 -9.91058142 94.27416201 -9.82763672 102.62695312 C-9.80572266 103.60873535 -9.78380859 104.59051758 -9.76123047 105.60205078 C-9.78215629 113.35899197 -10.93186189 121.47230011 -16.27905273 127.43530273 C-22.02000757 132.68649449 -26.6030029 134.84389146 -34.43701172 134.69726562 C-39.29024816 133.82582814 -42.36280319 131.07063971 -45.26513672 127.18945312 C-51.91138035 114.23465031 -47.93913577 97.64435098 -44.26513672 84.18945312 C-43.34415557 81.48308674 -42.32014528 78.84865278 -41.26513672 76.18945312 C-39.67038406 71.40519514 -39.77857839 67.57230312 -41.45263672 62.81445312 C-43.01415458 60.0018185 -43.01415458 60.0018185 -45.76513672 59.31445312 C-47.59665551 59.22287719 -49.43132996 59.18945312 -51.26513672 59.18945312 C-51.76013672 60.67445312 -51.76013672 60.67445312 -52.26513672 62.18945312 C-54.44482422 63.97851562 -54.44482422 63.97851562 -57.14013672 65.81445312 C-58.02443359 66.42546875 -58.90873047 67.03648438 -59.81982422 67.66601562 C-63.09549333 69.70676794 -65.83965057 70.39583087 -69.64013672 70.56445312 C-70.39037109 70.6134375 -71.14060547 70.66242188 -71.91357422 70.71289062 C-77.59445629 69.44837535 -80.82447167 63.23280105 -83.95263672 58.68945312 C-87.3492902 53.83231578 -90.85183539 49.09835308 -94.51513672 44.43945312 C-103.45988025 32.97694277 -107.51740452 24.95935146 -106.26513672 10.18945312 C-105.28065346 7.38903184 -104.39273999 6.37615648 -102.26513672 4.18945312 C-101.68763672 3.57070313 -101.11013672 2.95195313 -100.51513672 2.31445312 C-97.04562961 0.57969957 -93.98850975 0.399853 -90.26513672 1.18945312 C-80.54409358 5.56104649 -73.931176 18.06024583 -69.26513672 27.18945312 C-69.26513672 27.84945312 -69.26513672 28.50945312 -69.26513672 29.18945312 C-66.37728219 29.30732474 -64.88130173 29.28721648 -62.26513672 28.18945312 C-58.56281027 24.28789834 -56.03181831 19.4986856 -53.32763672 14.88085938 C-46.51690581 3.37444877 -40.24556058 -2.64521594 -27.30029297 -6.37695312 C-16.57236686 -8.66255734 -8.91026402 -5.69154695 0 0 Z " fill="#070707" transform="translate(131.26513671875,43.810546875)"/>
<path d="M0 0 C3.375 2.125 3.375 2.125 6 5 C6.83819387 8.93951119 6.22326295 10.58655008 4.3125 14.125 C0.22270742 19.20960699 0.22270742 19.20960699 -3 21 C-6.10475567 21.12397462 -9.0052574 20.83546847 -12 20 C-14.43933105 17.56066895 -14.37608173 16.68410972 -14.5 13.3125 C-14.42681063 8.26243313 -12.97363453 5.83525284 -9.5078125 2.27734375 C-6.40554533 -0.35074269 -3.99289512 -0.46071867 0 0 Z " fill="#F6F6F6" transform="translate(115,61)"/>
<path d="M0 0 C0.66 0.33 1.32 0.66 2 1 C-0.64 3.64 -3.28 6.28 -6 9 C-6 5.06368636 -4.57142871 3.87394974 -2 1 C-1.34 0.67 -0.68 0.34 0 0 Z " fill="#D5D5D5" transform="translate(126,95)"/>
</svg>
